<?xml version="1.0" encoding="utf-8"?>
<!-- Generator: Adobe Illustrator 24.0.2, SVG Export Plug-In . SVG Version: 6.00 Build 0)  -->
<svg version="1.1" id="Layer_1" xmlns="http://www.w3.org/2000/svg" xmlns:xlink="http://www.w3.org/1999/xlink" x="0px" y="0px"
	 viewBox="0 0 237 108" style="enable-background:new 0 0 237 108;" xml:space="preserve">
<style type="text/css">
	.st0{fill:none;}
	.st1{enable-background:new    ;}
	.st2{fill:#79B530;}
	.st3{fill:#FFFFFF;}
	.st4{fill:#E0E31C;}
</style>
<g id="Group_1" transform="translate(-429 -366)">
	<g id="Rectangle_1">
		<rect x="429" y="380" class="st0" width="237" height="74"/>
	</g>
	<g class="st1">
		<path class="st2" d="M500.6,405.8c-0.3-0.5-0.6-1.2-0.9-2.1c-0.3-0.9-0.4-1.8-0.4-2.8c0-1.8,0.4-3.1,1.2-3.9
			c0.8-0.8,1.9-1.2,3.1-1.2h30.1c0.3,0.5,0.6,1.2,0.9,2.1c0.3,0.9,0.4,1.8,0.4,2.8c0,1.8-0.4,3.1-1.2,3.9c-0.8,0.8-1.9,1.2-3.1,1.2
			H523v31.9c-0.5,0.1-1.3,0.3-2.4,0.4c-1.1,0.1-2.2,0.2-3.2,0.2c-1.1,0-2-0.1-2.8-0.2c-0.8-0.2-1.5-0.4-2-0.9c-0.6-0.4-1-1-1.2-1.7
			c-0.3-0.7-0.4-1.7-0.4-2.9v-26.8H500.6z"/>
		<path class="st2" d="M551.6,437.9c-0.5,0.1-1.2,0.3-2.2,0.4c-1,0.1-2,0.2-3.1,0.2c-1,0-1.9-0.1-2.7-0.2c-0.8-0.1-1.5-0.4-2-0.8
			c-0.6-0.4-1-1-1.3-1.7c-0.3-0.7-0.4-1.6-0.4-2.8v-20.7c0-1.1,0.2-2,0.6-2.7c0.4-0.8,1-1.4,1.7-2c0.7-0.6,1.6-1.1,2.7-1.6
			c1.1-0.5,2.2-0.9,3.5-1.3c1.2-0.4,2.5-0.7,3.9-0.9s2.7-0.3,4-0.3c2.2,0,4,0.4,5.2,1.3c1.3,0.9,1.9,2.2,1.9,4.2
			c0,0.6-0.1,1.3-0.3,1.9c-0.2,0.6-0.4,1.2-0.7,1.7c-1,0-2,0-3,0.1c-1,0.1-2,0.2-3,0.4c-1,0.2-1.9,0.4-2.7,0.6
			c-0.9,0.2-1.6,0.4-2.2,0.7V437.9z"/>
		<path class="st2" d="M604.3,421.2c0,2.9-0.4,5.4-1.3,7.6c-0.9,2.2-2.1,4.1-3.7,5.6c-1.6,1.5-3.5,2.7-5.7,3.4
			c-2.2,0.8-4.7,1.2-7.4,1.2s-5.2-0.4-7.4-1.2s-4.1-2-5.7-3.6c-1.6-1.5-2.8-3.4-3.7-5.6c-0.9-2.2-1.3-4.7-1.3-7.5
			c0-2.7,0.4-5.2,1.3-7.4c0.9-2.2,2.1-4.1,3.7-5.6c1.6-1.5,3.5-2.7,5.7-3.6s4.7-1.2,7.4-1.2s5.2,0.4,7.4,1.3c2.2,0.9,4.1,2,5.7,3.6
			c1.6,1.5,2.8,3.4,3.7,5.6C603.9,416.1,604.3,418.6,604.3,421.2z M580.2,421.2c0,2.8,0.5,5,1.6,6.5c1.1,1.5,2.6,2.2,4.5,2.2
			s3.4-0.8,4.5-2.3c1-1.5,1.6-3.7,1.6-6.4c0-2.8-0.5-4.9-1.6-6.4c-1.1-1.5-2.6-2.2-4.5-2.2c-1.9,0-3.4,0.7-4.5,2.2
			C580.7,416.3,580.2,418.5,580.2,421.2z"/>
		<path class="st2" d="M624.7,437.9c-0.5,0.1-1.3,0.2-2.2,0.4c-1,0.2-2,0.2-3,0.2s-1.9-0.1-2.7-0.2c-0.8-0.1-1.5-0.4-2-0.8
			c-0.6-0.4-1-1-1.3-1.7c-0.3-0.7-0.4-1.6-0.4-2.8v-40c0.5-0.1,1.3-0.2,2.2-0.4c1-0.2,2-0.2,3-0.2c1,0,1.9,0.1,2.7,0.2
			c0.8,0.1,1.5,0.4,2,0.8c0.6,0.4,1,1,1.3,1.7c0.3,0.7,0.4,1.6,0.4,2.8V437.9z"/>
		<path class="st2" d="M634.5,395.2c0-1.7,0.6-3.2,1.8-4.4s2.7-1.8,4.7-1.8c1.9,0,3.5,0.6,4.7,1.8c1.2,1.2,1.8,2.7,1.8,4.4
			s-0.6,3.2-1.8,4.4c-1.2,1.2-2.7,1.8-4.7,1.8c-1.9,0-3.5-0.6-4.7-1.8S634.5,396.9,634.5,395.2z M646.8,437.9
			c-0.5,0.1-1.3,0.2-2.2,0.4c-1,0.2-2,0.2-3,0.2s-1.9-0.1-2.7-0.2c-0.8-0.1-1.5-0.4-2-0.8s-1-1-1.3-1.7c-0.3-0.7-0.4-1.6-0.4-2.8
			v-28.1c0.5-0.1,1.3-0.2,2.2-0.4c1-0.2,2-0.2,3-0.2s1.9,0.1,2.7,0.2c0.8,0.1,1.5,0.4,2,0.8c0.6,0.4,1,1,1.3,1.7
			c0.3,0.7,0.4,1.6,0.4,2.8V437.9z"/>
	</g>
	<g id="Ellipse_1">
		<circle class="st2" cx="457.5" cy="417.5" r="27.5"/>
	</g>
</g>
<g>
	<g>
		<path class="st3" d="M35.2,63.1c0,1.9-0.2,3.4-0.7,4.5c-0.5,1.1-1.1,1.9-1.9,2.3c-0.8,0.4-1.9,0.6-3.2,0.6c-2,0-3.4-0.5-4.3-1.6
			c-0.9-1-1.3-2.9-1.4-5.6L23.6,45h-4.3c-2.1,0-3.7-0.3-4.7-1c-1-0.7-1.6-1.9-1.6-3.5c0-1,0.2-1.9,0.6-2.5c0.4-0.6,1-1,1.9-1.3
			c0.8-0.3,1.9-0.4,3.3-0.4h21.4c1.9,0,3.2,0.3,4,1c0.8,0.7,1.3,1.8,1.3,3.5c0,1.1-0.2,2-0.7,2.6c-0.5,0.6-1.1,1-1.9,1.3
			c-0.8,0.2-1.8,0.4-3.1,0.4h-4.6V63.1z"/>
		<path class="st4" d="M29.3,72.1c-2.4,0-4.2-0.7-5.4-2.1c-1.1-1.3-1.7-3.5-1.7-6.5l-0.1-17h-2.8c-2.4,0-4.2-0.4-5.5-1.2
			c-1-0.7-2.3-2-2.3-4.8c0-1.3,0.3-2.5,0.9-3.3c0.6-0.9,1.5-1.5,2.7-1.9c1-0.3,2.2-0.4,3.8-0.4h21.4c2.2,0,3.9,0.4,5,1.3
			c1.2,1,1.8,2.5,1.8,4.6c0,1.4-0.4,2.6-1,3.5c-0.7,0.9-1.6,1.5-2.7,1.8c-0.9,0.3-2.1,0.4-3.5,0.4h-3.1v16.6c0,2.1-0.3,3.8-0.8,5.1
			c-0.6,1.4-1.5,2.5-2.6,3.1C32.2,71.8,30.9,72.1,29.3,72.1z M18.9,37.9c-1.2,0-2.2,0.1-2.9,0.3c-0.5,0.2-0.9,0.4-1.1,0.7
			c-0.2,0.3-0.4,0.9-0.4,1.6c0,1.7,0.7,2.1,0.9,2.3c0.6,0.3,1.7,0.8,3.9,0.8h5.7l0.1,19.9c0,2.9,0.6,4.1,1,4.6c0.6,0.7,1.6,1,3.1,1
			c1.1,0,1.9-0.2,2.5-0.5c0.5-0.3,0.9-0.8,1.2-1.6c0.4-0.9,0.6-2.3,0.6-3.9V43.5h6.1c1.1,0,2-0.1,2.7-0.3c0.5-0.1,0.9-0.4,1.2-0.8
			c0.3-0.3,0.4-0.9,0.4-1.6c0-0.8-0.1-1.8-0.7-2.3c-0.3-0.3-1.1-0.7-3.1-0.7H18.9z"/>
	</g>
</g>
</svg>
