<svg xmlns="http://www.w3.org/2000/svg" viewBox="0 0 55 55"><defs><style>.cls-1{fill:#79b530;}.cls-2{fill:#fff;}.cls-3{fill:#e0e31c;}</style></defs><title>Asset 1</title><g id="Layer_2" data-name="Layer 2"><g id="Layer_1-2" data-name="Layer 1"><g id="Ellipse_1" data-name="Ellipse 1"><circle class="cls-1" cx="27.5" cy="27.5" r="27.5"/></g><path class="cls-2" d="M34.17,39.11a11.84,11.84,0,0,1-.71,4.52A4.35,4.35,0,0,1,31.54,46a6.94,6.94,0,0,1-3.23.65A5.28,5.28,0,0,1,24,45c-.88-1.05-1.34-2.9-1.37-5.57L22.56,21H18.31a8.89,8.89,0,0,1-4.72-1A3.87,3.87,0,0,1,12,16.46,4.21,4.21,0,0,1,12.64,14a3.37,3.37,0,0,1,1.88-1.28,12,12,0,0,1,3.34-.37H39.27a6.46,6.46,0,0,1,4,1,4.17,4.17,0,0,1,1.25,3.45,4.07,4.07,0,0,1-.72,2.57,3.67,3.67,0,0,1-1.92,1.28,11.59,11.59,0,0,1-3.11.35H34.17Z"/><path class="cls-3" d="M28.31,48.11A6.72,6.72,0,0,1,22.89,46c-1.12-1.34-1.69-3.47-1.72-6.52l-.1-17H18.31a10.19,10.19,0,0,1-5.52-1.24c-1-.65-2.27-2-2.27-4.81a5.72,5.72,0,0,1,.89-3.31,4.83,4.83,0,0,1,2.67-1.85,13.19,13.19,0,0,1,3.78-.44H39.27a7.77,7.77,0,0,1,5,1.33,5.57,5.57,0,0,1,1.81,4.62,5.56,5.56,0,0,1-1,3.5,5.13,5.13,0,0,1-2.69,1.79,12.83,12.83,0,0,1-3.52.41H35.67v16.6a13.23,13.23,0,0,1-.82,5.1,5.83,5.83,0,0,1-2.61,3.07A8.18,8.18,0,0,1,28.31,48.11ZM17.86,13.86a10.55,10.55,0,0,0-2.91.31,1.92,1.92,0,0,0-1.08.69,2.94,2.94,0,0,0-.35,1.6c0,1.72.66,2.14.87,2.28a7.39,7.39,0,0,0,3.92.77h5.75l.11,19.94c0,2.85.57,4.09,1,4.62a3.93,3.93,0,0,0,3.12,1,5.44,5.44,0,0,0,2.53-.48,3,3,0,0,0,1.24-1.58,10.5,10.5,0,0,0,.59-3.94V19.51h6.14a10,10,0,0,0,2.68-.29,2.22,2.22,0,0,0,1.17-.76,2.78,2.78,0,0,0,.4-1.65,3,3,0,0,0-.68-2.28,5.07,5.07,0,0,0-3.11-.67Z"/></g></g></svg>